# The Great Editor v0.0.1
mtllib floor_1.mtl
o floor_1
v -2.1615532660455625 2.6219846289692823 0
v -2.1615532660455625 2.6219846289692823 -0.1
v 9.442966506096122 2.6219846289692823 0
v 9.442966506096122 2.6219846289692823 -0.1
v 9.443972253939993 -7.37801532045428 0
v 9.443972253939993 -7.37801532045428 -0.1
v -2.161352116476788 -7.37716043478699 0
v -2.161352116476788 -7.37716043478699 -0.1
vt -2.1615532660455625 2.6219846289692823 0
vt 9.442966506096122 2.6219846289692823 0
vt 9.443972253939993 -7.37801532045428 0
vt -2.161352116476788 -7.37716043478699 0
vn 0 0 1
vn 0 0 -1
usemtl floor_1
s off
f 7/4/1 3/2/1 1/1/1
f 2/1/2 4/2/2 8/4/2
f 7/4/1 5/3/1 3/2/1
f 4/2/2 6/3/2 8/4/2
