<?xml version="1.0" encoding="UTF-8" standalone="no"?>
<svg
   xmlns:dc="http://purl.org/dc/elements/1.1/"
   xmlns:cc="http://creativecommons.org/ns#"
   xmlns:rdf="http://www.w3.org/1999/02/22-rdf-syntax-ns#"
   xmlns:svg="http://www.w3.org/2000/svg"
   xmlns="http://www.w3.org/2000/svg"
   id="svg851"
   version="1.1"
   viewBox="0 0 353.68011 336.55496"
   height="336.55496mm"
   width="353.68011mm">
  <defs
     id="defs845">
    <clipPath
       id="clipPath835"
       clipPathUnits="userSpaceOnUse">
      <path
         id="path833"
         d="M 0,841.89 H 595.276 V 0 H 0 Z" />
    </clipPath>
  </defs>
  <metadata
     id="metadata848">
    <rdf:RDF>
      <cc:Work
         rdf:about="">
        <dc:format>image/svg+xml</dc:format>
        <dc:type
           rdf:resource="http://purl.org/dc/dcmitype/StillImage" />
        <dc:title></dc:title>
      </cc:Work>
    </rdf:RDF>
  </metadata>
  <g
     transform="translate(56.643634,31.598391)"
     id="layer1">
    <g
       id="layer1-7"
       transform="translate(61.988085,9.8273816)">
      <g
         transform="matrix(0.78869066,0,0,-0.78869066,-176.69757,479.49171)"
         id="g823"
         style="stroke-width:0.44729549">
        <g
           id="g829"
           style="stroke-width:0.44729549">
          <g
             clip-path="url(#clipPath835)"
             id="g831"
             style="stroke-width:0.44729549">
            <g
               transform="matrix(0.95956933,0,0,0.95956933,218.90882,387.92871)"
               id="g913"
               style="stroke-width:0.46614191">
              <path
                 id="path915"
                 style="fill:#173273;fill-opacity:1;fill-rule:nonzero;stroke:none;stroke-width:0.46614191"
                 d="m 0,0 h -30.728 c -51.434,0 -93.301,41.859 -93.301,93.294 0,24.496 9.428,47.631 26.547,65.179 8.644,8.851 22.814,9.021 31.658,0.373 8.863,-8.621 9.025,-22.796 0.396,-31.67 -8.92,-9.104 -13.798,-21.137 -13.798,-33.882 0,-26.751 21.76,-48.499 48.498,-48.499 H 0 c 12.354,0 22.377,-10.027 22.377,-22.41 C 22.377,10.027 12.354,0 0,0" />
            </g>
            <g
               transform="matrix(0.95956933,0,0,0.95956933,214.14936,561.49225)"
               id="g917"
               style="stroke-width:0.46614191">
              <path
                 id="path919"
                 style="fill:#e9491f;fill-opacity:1;fill-rule:nonzero;stroke:none;stroke-width:0.46614191"
                 d="m 0,0 c 0,-11.897 -9.631,-21.532 -21.525,-21.532 -11.894,0 -21.544,9.635 -21.544,21.532 0,11.897 9.65,21.526 21.544,21.526 C -9.631,21.526 0,11.897 0,0" />
            </g>
            <g
               transform="matrix(0.95956933,0,0,0.95956933,329.29019,406.87828)"
               id="g921"
               style="stroke-width:0.46614191">
              <path
                 id="path923"
                 style="fill:#e9491f;fill-opacity:1;fill-rule:nonzero;stroke:none;stroke-width:0.46614191"
                 d="m 0,0 c 0,-11.897 -9.632,-21.532 -21.525,-21.532 -11.894,0 -21.545,9.635 -21.545,21.532 0,11.897 9.651,21.526 21.545,21.526 C -9.632,21.526 0,11.897 0,0" />
            </g>
            <g
               transform="matrix(0.95956933,0,0,0.95956933,434.0576,544.38956)"
               id="g925"
               style="stroke-width:0.46614191">
              <path
                 id="path927"
                 style="fill:#125dab;fill-opacity:1;fill-rule:nonzero;stroke:none;stroke-width:0.46614191"
                 d="m 0,0 c -7.099,65.858 -53.791,111.996 -116.214,111.996 -68.609,0 -94.858,-46.454 -95.945,-48.449 -5.937,-10.831 -1.956,-24.44 8.879,-30.38 10.868,-5.945 24.473,-1.965 30.414,8.881 0.14,0.245 14.944,25.152 56.652,25.152 49.719,0 72.368,-43.993 72.354,-84.887 -0.065,-0.709 -0.099,-1.422 -0.129,-2.139 -0.155,-4.836 1.304,-9.537 4.022,-13.472 L 3.412,-0.927 C 2.27,-0.633 1.161,-0.283 0,0" />
            </g>
            <g
               transform="matrix(0.95956933,0,0,0.95956933,437.33175,543.49985)"
               id="g929"
               style="stroke-width:0.46614191">
              <path
                 id="path931"
                 style="fill:#173273;fill-opacity:1;fill-rule:nonzero;stroke:none;stroke-width:0.46614191"
                 d="m 0,0 -43.379,-32.371 c 0.814,-1.15 1.692,-2.258 2.703,-3.257 4.505,-4.403 10.664,-6.703 16.896,-6.344 l 1.146,0.071 c 0.359,0.015 0.697,0.064 1.007,0.068 20.835,0 37.746,-16.938 37.746,-37.747 0,-20.838 -16.911,-37.751 -37.746,-37.751 h -20.202 c -12.358,0 -22.382,-10.027 -22.382,-22.41 0,-12.358 10.024,-22.385 22.382,-22.385 h 20.202 c 45.534,0 82.55,37.019 82.55,82.546 C 60.923,-41.558 35.036,-9.526 0,0" />
            </g>
            <g
               transform="matrix(0.95956933,0,0,0.95956933,98.187708,269.43216)"
               id="g933"
               style="stroke-width:0.46614191">
              <path
                 id="path935"
                 style="fill:#173273;fill-opacity:1;fill-rule:nonzero;stroke:none;stroke-width:0.46614191"
                 d="m 0,0 c 0,-0.717 0.03,-1.409 0.09,-2.064 0.058,-0.66 0.209,-1.111 0.448,-1.346 0.837,-2.516 2.247,-4.581 4.221,-6.199 1.978,-1.615 4.403,-2.425 7.275,-2.425 h 42.571 c 2.513,0 4.4,-0.75 5.658,-2.243 1.258,-1.5 1.887,-3.119 1.887,-4.851 0,-1.738 -0.629,-3.353 -1.887,-4.85 -1.258,-1.5 -3.145,-2.247 -5.658,-2.247 H 12.034 c -3.713,0 -7.184,0.66 -10.416,1.978 -3.233,1.315 -6.018,3.142 -8.352,5.478 -2.337,2.335 -4.164,5.121 -5.479,8.352 -1.318,3.232 -1.977,6.704 -1.977,10.417 v 1.437 c 0,3.712 0.659,7.187 1.977,10.419 1.315,3.233 3.142,6.018 5.479,8.352 2.334,2.334 5.119,4.161 8.352,5.479 3.232,1.315 6.703,1.974 10.416,1.974 h 42.571 c 2.513,0 4.4,-0.749 5.658,-2.243 1.258,-1.5 1.887,-3.114 1.887,-4.851 0,-1.738 -0.629,-3.352 -1.887,-4.849 -1.258,-1.5 -3.145,-2.247 -5.658,-2.247 H 12.034 C 8.92,13.471 6.135,12.334 3.683,10.061 1.228,7.783 0,4.911 0,1.437 Z" />
            </g>
            <g
               transform="matrix(0.95956933,0,0,0.95956933,109.73584,294.09147)"
               id="g937"
               style="stroke-width:0.46614191">
              <path
                 id="path939"
                 style="fill:#173273;fill-opacity:1;fill-rule:nonzero;stroke:none;stroke-width:0.46614191"
                 d="m 0,0 c -3.443,0 -6.699,-0.613 -9.678,-1.827 -2.972,-1.213 -5.567,-2.913 -7.704,-5.051 -2.141,-2.138 -3.838,-4.726 -5.049,-7.702 -1.216,-2.983 -1.832,-6.24 -1.832,-9.681 v -1.437 c 0,-3.438 0.616,-6.695 1.832,-9.675 1.211,-2.976 2.908,-5.567 5.049,-7.708 2.134,-2.138 4.726,-3.835 7.704,-5.048 2.981,-1.217 6.238,-1.832 9.678,-1.832 h 42.57 c 1.922,0 3.284,0.505 4.157,1.548 0.962,1.141 1.427,2.313 1.427,3.587 0,1.269 -0.468,2.442 -1.427,3.591 -0.873,1.035 -2.235,1.541 -4.157,1.541 H 0 c -3.318,0 -6.183,0.965 -8.516,2.867 -2.175,1.781 -3.764,4.059 -4.729,6.772 -0.359,0.535 -0.573,1.236 -0.654,2.117 -0.065,0.71 -0.097,1.461 -0.097,2.24 v 1.437 c 0,4.022 1.451,7.408 4.308,10.062 2.818,2.611 6.078,3.935 9.688,3.935 h 42.57 c 1.925,0 3.284,0.505 4.157,1.546 0.962,1.143 1.427,2.319 1.427,3.589 0,1.268 -0.468,2.441 -1.427,3.589 C 45.854,-0.505 44.492,0 42.57,0 Z M 42.57,-53.886 H 0 c -3.951,0 -7.705,0.717 -11.159,2.124 -3.462,1.411 -6.491,3.398 -8.996,5.908 -2.513,2.511 -4.503,5.538 -5.908,9.002 -1.408,3.452 -2.124,7.206 -2.124,11.154 v 1.437 c 0,3.951 0.716,7.705 2.124,11.159 1.408,3.462 3.395,6.492 5.908,8.999 2.508,2.508 5.537,4.495 8.996,5.909 C -7.708,3.211 -3.954,3.924 0,3.924 h 42.57 c 3.106,0 5.516,-0.989 7.159,-2.941 1.56,-1.861 2.349,-3.915 2.349,-6.112 0,-2.203 -0.789,-4.257 -2.346,-6.113 -1.643,-1.954 -4.051,-2.946 -7.162,-2.946 H 0 c -2.626,0 -4.921,-0.943 -7.021,-2.886 -2.054,-1.908 -3.051,-4.26 -3.051,-7.187 v -1.437 c 0,-0.655 0.027,-1.286 0.081,-1.889 l 0.338,-0.33 0.016,-0.573 c 0.724,-2.173 1.906,-3.907 3.605,-5.302 1.633,-1.33 3.608,-1.979 6.032,-1.979 h 42.57 c 3.106,0 5.516,-0.989 7.159,-2.94 1.56,-1.862 2.349,-3.919 2.349,-6.115 0,-2.203 -0.789,-4.26 -2.349,-6.112 -1.64,-1.956 -4.051,-2.948 -7.159,-2.948" />
            </g>
            <g
               transform="matrix(0.95956933,0,0,0.95956933,184.71016,331.1389)"
               id="g941"
               style="stroke-width:0.46614191">
              <path
                 id="path943"
                 style="fill:#173273;fill-opacity:1;fill-rule:nonzero;stroke:none;stroke-width:0.46614191"
                 d="m 0,0 v -64.845 c 0,-3.114 1.17,-5.839 3.504,-8.173 2.335,-2.335 5.056,-3.502 8.174,-3.502 v -14.011 c -3.475,0 -6.767,0.659 -9.882,1.977 -3.114,1.316 -5.836,3.112 -8.17,5.389 -2.337,2.273 -4.194,4.998 -5.57,8.173 -1.379,3.172 -2.065,6.555 -2.065,10.147 V 0 Z" />
            </g>
            <g
               transform="matrix(0.95956933,0,0,0.95956933,173.14888,329.25632)"
               id="g945"
               style="stroke-width:0.46614191">
              <path
                 id="path947"
                 style="fill:#173273;fill-opacity:1;fill-rule:nonzero;stroke:none;stroke-width:0.46614191"
                 d="m 0,0 v -62.883 c 0,-3.31 0.641,-6.461 1.903,-9.364 1.27,-2.929 2.997,-5.467 5.14,-7.551 2.145,-2.097 4.691,-3.772 7.564,-4.988 2.268,-0.96 4.667,-1.543 7.157,-1.743 v 10.15 c -2.841,0.408 -5.389,1.73 -7.597,3.938 -2.708,2.703 -4.081,5.919 -4.081,9.558 V 0 Z m 25.687,-90.532 h -1.961 c -3.722,0 -7.303,0.719 -10.646,2.135 -3.327,1.406 -6.28,3.354 -8.775,5.792 -2.508,2.437 -4.527,5.399 -5.999,8.796 -1.479,3.397 -2.23,7.073 -2.23,10.926 V 3.924 H 14.01 v -66.807 c 0,-2.596 0.957,-4.815 2.929,-6.786 1.971,-1.97 4.189,-2.927 6.787,-2.927 h 1.961 z" />
            </g>
            <g
               transform="matrix(0.95956933,0,0,0.95956933,217.65687,268.91582)"
               id="g949"
               style="stroke-width:0.46614191">
              <path
                 id="path951"
                 style="fill:#173273;fill-opacity:1;fill-rule:nonzero;stroke:none;stroke-width:0.46614191"
                 d="m 0,0 c 0,-3.232 1.194,-5.927 3.592,-8.082 2.395,-2.156 5.21,-3.232 8.443,-3.232 h 26.763 c 3.232,0 6.044,1.076 8.442,3.232 2.395,2.155 3.592,4.85 3.592,8.082 v 1.975 c 0,3.235 -1.197,6.047 -3.592,8.442 -2.398,2.395 -5.21,3.592 -8.442,3.592 H 12.035 C 8.802,14.009 5.987,12.812 3.592,10.417 1.194,8.022 0,5.21 0,1.975 Z M 38.798,-25.505 H 12.035 c -3.593,0 -6.979,0.656 -10.148,1.975 -3.175,1.318 -5.96,3.144 -8.355,5.478 -2.395,2.335 -4.282,5.029 -5.657,8.083 -1.376,3.054 -2.065,6.377 -2.065,9.969 v 1.975 c 0,3.712 0.689,7.187 2.065,10.42 1.375,3.232 3.262,6.017 5.657,8.351 2.395,2.334 5.18,4.161 8.355,5.479 3.169,1.315 6.555,1.974 10.148,1.974 h 26.763 c 3.592,0 6.973,-0.659 10.147,-1.974 3.172,-1.318 5.957,-3.145 8.352,-5.479 2.395,-2.334 4.282,-5.119 5.661,-8.351 1.372,-3.233 2.064,-6.708 2.064,-10.42 V 0 c 0,-3.592 -0.692,-6.915 -2.064,-9.969 -1.379,-3.054 -3.266,-5.748 -5.661,-8.083 -2.395,-2.334 -5.18,-4.16 -8.352,-5.478 -3.174,-1.319 -6.555,-1.975 -10.147,-1.975" />
            </g>
            <g
               transform="matrix(0.95956933,0,0,0.95956933,229.205,280.47662)"
               id="g953"
               style="stroke-width:0.46614191">
              <path
                 id="path955"
                 style="fill:#173273;fill-opacity:1;fill-rule:nonzero;stroke:none;stroke-width:0.46614191"
                 d="m 0,0 c -2.719,0 -5.027,-0.986 -7.057,-3.019 -2.029,-2.029 -3.015,-4.335 -3.015,-7.053 v -1.976 c 0,-2.678 0.962,-4.843 2.94,-6.626 2.04,-1.835 4.373,-2.727 7.132,-2.727 h 26.763 c 2.757,0 5.089,0.892 7.132,2.727 1.978,1.783 2.94,3.951 2.94,6.626 v 1.976 c 0,2.717 -0.986,5.024 -3.016,7.053 C 31.787,-0.986 29.479,0 26.763,0 Z M 26.763,-25.325 H 0 c -3.722,0 -7.002,1.257 -9.756,3.737 -2.814,2.53 -4.241,5.74 -4.241,9.54 v 1.976 c 0,3.76 1.403,7.064 4.168,9.827 2.762,2.766 6.07,4.17 9.829,4.17 h 26.763 c 3.757,0 7.064,-1.404 9.829,-4.17 2.764,-2.766 4.167,-6.07 4.167,-9.827 v -1.976 c 0,-3.797 -1.426,-7.005 -4.24,-9.54 -2.757,-2.48 -6.038,-3.737 -9.756,-3.737 M 0,14.188 c -3.322,0 -6.483,-0.613 -9.397,-1.821 -2.927,-1.216 -5.529,-2.924 -7.734,-5.075 -2.201,-2.141 -3.957,-4.737 -5.224,-7.713 -1.268,-2.975 -1.908,-6.222 -1.908,-9.651 v -1.976 c 0,-3.294 0.635,-6.378 1.891,-9.164 1.265,-2.81 3.027,-5.329 5.241,-7.483 2.205,-2.152 4.807,-3.857 7.734,-5.073 2.914,-1.211 6.073,-1.824 9.397,-1.824 h 26.763 c 3.319,0 6.478,0.613 9.397,1.824 2.923,1.216 5.526,2.924 7.734,5.073 2.208,2.154 3.973,4.673 5.243,7.486 1.254,2.789 1.889,5.872 1.889,9.161 v 1.976 c 0,3.422 -0.64,6.67 -1.908,9.651 -1.27,2.978 -3.027,5.572 -5.224,7.713 -2.205,2.151 -4.808,3.859 -7.737,5.075 -2.916,1.208 -6.078,1.821 -9.394,1.821 z M 26.763,-39.516 H 0 c -3.843,0 -7.51,0.716 -10.902,2.127 -3.387,1.406 -6.405,3.386 -8.967,5.883 -2.568,2.503 -4.61,5.424 -6.081,8.684 -1.484,3.297 -2.237,6.921 -2.237,10.774 v 1.976 c 0,3.96 0.748,7.723 2.221,11.186 1.473,3.459 3.524,6.481 6.097,8.989 2.562,2.497 5.578,4.477 8.97,5.885 3.391,1.408 7.059,2.124 10.899,2.124 h 26.763 c 3.835,0 7.502,-0.716 10.899,-2.124 3.389,-1.408 6.408,-3.388 8.97,-5.885 2.57,-2.506 4.621,-5.53 6.097,-8.987 1.473,-3.472 2.221,-7.237 2.221,-11.188 v -1.976 c 0,-3.846 -0.754,-7.472 -2.238,-10.774 -1.472,-3.262 -3.518,-6.184 -6.08,-8.684 -2.565,-2.497 -5.581,-4.475 -8.967,-5.883 -3.397,-1.411 -7.064,-2.127 -10.902,-2.127" />
            </g>
            <g
               transform="matrix(0.95956933,0,0,0.95956933,306.65319,331.65525)"
               id="g957"
               style="stroke-width:0.46614191">
              <path
                 id="path959"
                 style="fill:#e9491f;fill-opacity:1;fill-rule:nonzero;stroke:none;stroke-width:0.46614191"
                 d="m 0,0 v -65.204 c 0,-3.475 1.076,-6.317 3.232,-8.53 2.156,-2.216 4.789,-3.324 7.904,-3.324 h 26.763 c 3.471,0 6.314,1.108 8.534,3.324 2.213,2.213 3.319,5.055 3.319,8.53 v 1.439 c 0,3.471 -1.106,6.314 -3.319,8.53 -2.22,2.216 -5.063,3.323 -8.534,3.323 H 11.136 c -2.277,0 -3.982,0.747 -5.119,2.247 -1.14,1.496 -1.705,3.111 -1.705,4.85 0,1.732 0.565,3.35 1.705,4.85 1.137,1.493 2.842,2.243 5.119,2.243 h 26.763 c 3.71,0 7.124,-0.659 10.239,-1.974 3.111,-1.322 5.836,-3.145 8.173,-5.479 2.335,-2.335 4.158,-5.092 5.476,-8.263 1.318,-3.172 1.978,-6.617 1.978,-10.327 v -1.439 c 0,-3.713 -0.66,-7.124 -1.978,-10.238 -1.318,-3.115 -3.141,-5.836 -5.476,-8.171 -2.337,-2.337 -5.062,-4.163 -8.173,-5.479 -3.115,-1.318 -6.529,-1.977 -10.239,-1.977 H 11.136 c -3.474,0 -6.737,0.659 -9.79,1.977 -3.052,1.316 -5.719,3.142 -7.992,5.479 -2.277,2.335 -4.073,5.056 -5.389,8.171 -1.318,3.114 -1.977,6.525 -1.977,10.238 V 0 Z" />
            </g>
            <g
               transform="matrix(0.95956933,0,0,0.95956933,295.09057,329.77257)"
               id="g961"
               style="stroke-width:0.46614191">
              <path
                 id="path963"
                 style="fill:#dc4922;fill-opacity:1;fill-rule:nonzero;stroke:none;stroke-width:0.46614191"
                 d="m 0,0 v -63.242 c 0,-3.43 0.614,-6.618 1.822,-9.475 1.21,-2.868 2.886,-5.414 4.986,-7.567 2.078,-2.135 4.556,-3.832 7.362,-5.046 2.794,-1.205 5.832,-1.816 9.015,-1.816 h 26.766 c 3.432,0 6.615,0.614 9.47,1.822 2.87,1.213 5.41,2.916 7.551,5.058 2.139,2.141 3.842,4.681 5.058,7.549 1.211,2.857 1.822,6.045 1.822,9.475 v 1.44 c 0,3.435 -0.617,6.656 -1.827,9.57 -1.221,2.935 -2.919,5.503 -5.048,7.631 -2.146,2.141 -4.686,3.844 -7.556,5.063 -2.855,1.205 -6.043,1.815 -9.47,1.815 H 23.185 c -2.189,0 -3.076,-0.837 -3.556,-1.466 -0.876,-1.155 -1.303,-2.352 -1.303,-3.665 0,-1.314 0.427,-2.511 1.303,-3.66 0.48,-0.637 1.367,-1.475 3.556,-1.475 h 26.766 c 3.994,0 7.329,-1.311 9.918,-3.897 2.584,-2.587 3.898,-5.925 3.898,-9.916 v -1.44 c 0,-3.997 -1.314,-7.332 -3.904,-9.916 -2.583,-2.586 -5.918,-3.9 -9.912,-3.9 H 23.185 c -3.648,0 -6.778,1.32 -9.307,3.919 -2.514,2.578 -3.789,5.91 -3.789,9.897 L 10.089,0 Z M 49.951,-91.07 H 23.185 c -3.724,0 -7.281,0.721 -10.567,2.14 -3.281,1.416 -6.181,3.406 -8.621,5.91 -2.44,2.503 -4.389,5.457 -5.789,8.776 -1.413,3.343 -2.132,7.046 -2.132,11.002 V 3.924 h 17.937 v -67.166 c 0,-2.97 0.876,-5.314 2.675,-7.162 1.79,-1.837 3.914,-2.73 6.497,-2.73 h 26.766 c 2.956,0 5.291,0.898 7.14,2.749 1.854,1.849 2.751,4.184 2.751,7.143 v 1.44 c 0,2.957 -0.897,5.292 -2.751,7.143 -1.849,1.848 -4.184,2.746 -7.14,2.746 H 23.185 c -2.914,0 -5.162,1.018 -6.68,3.026 -1.395,1.827 -2.103,3.86 -2.103,6.033 0,2.172 0.708,4.202 2.103,6.037 1.048,1.376 3.054,3.019 6.68,3.019 h 26.766 c 3.951,0 7.653,-0.717 10.999,-2.127 3.34,-1.419 6.297,-3.402 8.8,-5.902 2.491,-2.495 4.48,-5.489 5.896,-8.897 1.412,-3.397 2.13,-7.124 2.13,-11.078 v -1.44 c 0,-3.956 -0.718,-7.659 -2.135,-11.005 -1.411,-3.335 -3.394,-6.294 -5.891,-8.791 -2.503,-2.503 -5.46,-4.489 -8.8,-5.898 -3.341,-1.416 -7.043,-2.134 -10.999,-2.134" />
            </g>
            <g
               transform="matrix(0.95956933,0,0,0.95956933,394.62621,268.91582)"
               id="g965"
               style="stroke-width:0.46614191">
              <path
                 id="path967"
                 style="fill:#173273;fill-opacity:1;fill-rule:nonzero;stroke:none;stroke-width:0.46614191"
                 d="m 0,0 c 0,-3.232 1.194,-5.927 3.593,-8.082 2.394,-2.156 5.21,-3.232 8.442,-3.232 h 26.763 c 3.232,0 6.045,1.076 8.442,3.232 2.395,2.155 3.592,4.85 3.592,8.082 v 1.975 c 0,3.235 -1.197,6.047 -3.592,8.442 -2.397,2.395 -5.21,3.592 -8.442,3.592 H 12.035 C 8.803,14.009 5.987,12.812 3.593,10.417 1.194,8.022 0,5.21 0,1.975 Z M 38.798,-25.505 H 12.035 c -3.593,0 -6.979,0.656 -10.148,1.975 -3.175,1.318 -5.959,3.144 -8.355,5.478 -2.394,2.335 -4.281,5.029 -5.657,8.083 -1.376,3.054 -2.065,6.377 -2.065,9.969 v 1.975 c 0,3.712 0.689,7.187 2.065,10.42 1.376,3.232 3.263,6.017 5.657,8.351 2.396,2.334 5.18,4.161 8.355,5.479 3.169,1.315 6.555,1.974 10.148,1.974 h 26.763 c 3.593,0 6.973,-0.659 10.147,-1.974 3.172,-1.318 5.957,-3.145 8.352,-5.479 2.395,-2.334 4.282,-5.119 5.661,-8.351 1.372,-3.233 2.064,-6.708 2.064,-10.42 V 0 c 0,-3.592 -0.692,-6.915 -2.064,-9.969 -1.379,-3.054 -3.266,-5.748 -5.661,-8.083 -2.395,-2.334 -5.18,-4.16 -8.352,-5.478 -3.174,-1.319 -6.554,-1.975 -10.147,-1.975" />
            </g>
            <g
               transform="matrix(0.95956933,0,0,0.95956933,406.17194,280.47662)"
               id="g969"
               style="stroke-width:0.46614191">
              <path
                 id="path971"
                 style="fill:#173273;fill-opacity:1;fill-rule:nonzero;stroke:none;stroke-width:0.46614191"
                 d="m 0,0 c -2.714,0 -5.021,-0.986 -7.048,-3.019 -2.038,-2.029 -3.021,-4.335 -3.021,-7.053 v -1.976 c 0,-2.678 0.962,-4.846 2.945,-6.623 2.038,-1.838 4.367,-2.73 7.124,-2.73 h 26.766 c 2.756,0 5.086,0.892 7.129,2.73 1.984,1.783 2.946,3.95 2.946,6.623 v 1.976 c 0,2.714 -0.989,5.021 -3.022,7.053 C 31.787,-0.986 29.479,0 26.766,0 Z M 26.766,-25.325 H 0 c -3.719,0 -7,1.257 -9.751,3.737 -2.815,2.53 -4.243,5.74 -4.243,9.54 v 1.976 c 0,3.762 1.405,7.067 4.173,9.829 C -7.06,2.521 -3.757,3.925 0,3.925 h 26.766 c 3.751,0 7.058,-1.404 9.826,-4.17 2.767,-2.766 4.173,-6.073 4.173,-9.827 v -1.976 c 0,-3.794 -1.427,-7.005 -4.244,-9.54 -2.761,-2.48 -6.042,-3.737 -9.755,-3.737 M 0,14.188 c -3.324,0 -6.48,-0.613 -9.395,-1.821 -2.934,-1.219 -5.534,-2.927 -7.739,-5.075 -2.194,-2.141 -3.951,-4.735 -5.216,-7.713 -1.265,-2.971 -1.908,-6.216 -1.908,-9.651 v -1.976 c 0,-3.3 0.638,-6.383 1.892,-9.161 1.264,-2.816 3.026,-5.332 5.232,-7.486 2.205,-2.146 4.811,-3.854 7.739,-5.073 2.915,-1.211 6.071,-1.824 9.395,-1.824 h 26.766 c 3.318,0 6.48,0.613 9.393,1.824 2.93,1.219 5.535,2.927 7.74,5.073 2.205,2.151 3.968,4.67 5.238,7.486 1.255,2.789 1.892,5.872 1.892,9.161 v 1.976 c 0,3.422 -0.643,6.67 -1.908,9.651 -1.27,2.981 -3.027,5.575 -5.222,7.713 -2.205,2.148 -4.804,3.856 -7.74,5.075 -2.918,1.208 -6.075,1.821 -9.393,1.821 z M 26.766,-39.516 H 0 c -3.843,0 -7.513,0.716 -10.896,2.127 -3.395,1.41 -6.411,3.389 -8.973,5.883 -2.568,2.5 -4.61,5.422 -6.075,8.684 -1.487,3.289 -2.238,6.916 -2.238,10.774 v 1.976 c 0,3.968 0.745,7.729 2.221,11.188 1.471,3.457 3.52,6.481 6.092,8.987 2.557,2.494 5.578,4.475 8.973,5.885 3.388,1.408 7.053,2.124 10.896,2.124 h 26.766 c 3.838,0 7.502,-0.716 10.896,-2.124 3.395,-1.41 6.416,-3.391 8.973,-5.885 2.567,-2.503 4.621,-5.525 6.096,-8.987 1.476,-3.472 2.222,-7.237 2.222,-11.188 v -1.976 c 0,-3.846 -0.751,-7.472 -2.238,-10.774 -1.476,-3.265 -3.519,-6.187 -6.08,-8.684 -2.563,-2.494 -5.578,-4.473 -8.973,-5.883 -3.394,-1.411 -7.058,-2.127 -10.896,-2.127" />
            </g>
            <g
               transform="matrix(0.95956933,0,0,0.95956933,489.7416,331.1389)"
               id="g973"
               style="stroke-width:0.46614191">
              <path
                 id="path975"
                 style="fill:#173273;fill-opacity:1;fill-rule:nonzero;stroke:none;stroke-width:0.46614191"
                 d="m 0,0 v -64.845 c 0,-3.114 1.17,-5.839 3.504,-8.173 2.335,-2.335 5.056,-3.502 8.174,-3.502 v -14.011 c -3.475,0 -6.768,0.659 -9.882,1.977 -3.114,1.316 -5.836,3.112 -8.17,5.389 -2.338,2.273 -4.194,4.998 -5.57,8.173 -1.379,3.172 -2.065,6.555 -2.065,10.147 V 0 Z" />
            </g>
            <g
               transform="matrix(0.95956933,0,0,0.95956933,478.17995,329.25632)"
               id="g977"
               style="stroke-width:0.46614191">
              <path
                 id="path979"
                 style="fill:#173273;fill-opacity:1;fill-rule:nonzero;stroke:none;stroke-width:0.46614191"
                 d="m 0,0 v -62.883 c 0,-3.31 0.639,-6.461 1.903,-9.366 1.27,-2.93 2.999,-5.471 5.14,-7.546 2.151,-2.1 4.691,-3.778 7.561,-4.991 2.271,-0.96 4.676,-1.543 7.163,-1.743 v 10.147 c -2.843,0.411 -5.395,1.733 -7.606,3.941 -2.702,2.708 -4.075,5.923 -4.075,9.558 V 0 Z m 25.69,-90.532 h -1.961 c -3.719,0 -7.302,0.719 -10.648,2.135 -3.324,1.403 -6.275,3.351 -8.772,5.792 -2.509,2.432 -4.531,5.391 -6.006,8.793 -1.476,3.403 -2.227,7.079 -2.227,10.929 V 3.924 h 17.935 v -66.807 c 0,-2.594 0.956,-4.812 2.928,-6.786 1.968,-1.97 4.19,-2.927 6.79,-2.927 h 1.961 z" />
            </g>
            <g
               transform="matrix(0.95956933,0,0,0.95956933,509.56084,310.13988)"
               id="g981"
               style="stroke-width:0.46614191">
              <path
                 id="path983"
                 style="fill:#173273;fill-opacity:1;fill-rule:nonzero;stroke:none;stroke-width:0.46614191"
                 d="m 0,0 c -1.076,1.416 -2.755,2.126 -5.028,2.126 h -29.559 v -13.817 h 29.559 c 2.273,0 3.952,0.709 5.028,2.126 1.079,1.416 1.618,3.011 1.618,4.782 C 1.618,-3.012 1.079,-1.417 0,0" />
            </g>
            <g
               transform="matrix(0.95956933,0,0,0.95956933,478.25307,300.80279)"
               id="g985"
               style="stroke-width:0.46614191">
              <path
                 id="path987"
                 style="fill:#173273;fill-opacity:1;fill-rule:nonzero;stroke:none;stroke-width:0.46614191"
                 d="m 0,0 h 27.598 c 1.643,0 2.773,0.44 3.464,1.352 0.822,1.078 1.222,2.253 1.222,3.596 0,1.341 -0.4,2.517 -1.216,3.592 l -0.006,0.003 c -0.691,0.91 -1.821,1.351 -3.464,1.351 L 0,9.894 Z M 27.598,-3.924 H -3.924 v 17.742 h 31.522 c 2.908,0 5.124,-0.978 6.589,-2.902 1.34,-1.76 2.021,-3.768 2.021,-5.968 0,-2.205 -0.681,-4.213 -2.026,-5.972 -1.46,-1.921 -3.676,-2.9 -6.584,-2.9" />
            </g>
            <g
               transform="matrix(0.95956933,0,0,0.95956933,456.49128,310.13988)"
               id="g989"
               style="stroke-width:0.46614191">
              <path
                 id="path991"
                 style="fill:#173273;fill-opacity:1;fill-rule:nonzero;stroke:none;stroke-width:0.46614191"
                 d="M 0,0 C 1.076,1.416 2.755,2.126 5.028,2.126 H 34.587 V -11.691 H 5.028 c -2.273,0 -3.952,0.709 -5.028,2.126 -1.08,1.416 -1.618,3.011 -1.618,4.782 0,1.771 0.538,3.366 1.618,4.783" />
            </g>
            <g
               transform="matrix(0.95956933,0,0,0.95956933,461.3135,310.29638)"
               id="g993"
               style="stroke-width:0.46614191">
              <path
                 id="path995"
                 style="fill:#173273;fill-opacity:1;fill-rule:nonzero;stroke:none;stroke-width:0.46614191"
                 d="M 0,0 C -1.643,0 -2.772,-0.44 -3.464,-1.351 L -3.47,-1.354 c -0.816,-1.07 -1.211,-2.246 -1.211,-3.591 0,-1.349 0.395,-2.525 1.211,-3.594 0.698,-0.914 1.827,-1.355 3.47,-1.355 H 27.599 V 0 Z M 31.522,-13.817 H 0 c -2.907,0 -5.124,0.978 -6.589,2.902 -1.335,1.751 -2.015,3.762 -2.015,5.97 0,2.205 0.68,4.214 2.015,5.967 1.465,1.924 3.682,2.903 6.589,2.903 h 31.522 z" />
            </g>
            <g
               transform="matrix(0.95956933,0,0,0.95956933,509.56084,255.64027)"
               id="g997"
               style="stroke-width:0.46614191">
              <path
                 id="path999"
                 style="fill:#173273;fill-opacity:1;fill-rule:nonzero;stroke:none;stroke-width:0.46614191"
                 d="M 0,0 C -1.076,1.436 -2.755,2.155 -5.028,2.155 H -9.35 v -14.007 h 4.322 c 2.273,0 3.952,0.72 5.028,2.156 1.079,1.435 1.618,3.052 1.618,4.847 C 1.618,-3.053 1.079,-1.436 0,0" />
            </g>
            <g
               transform="matrix(0.95956933,0,0,0.95956933,502.47375,246.15042)"
               id="g1001"
               style="stroke-width:0.46614191">
              <path
                 id="path1003"
                 style="fill:#173273;fill-opacity:1;fill-rule:nonzero;stroke:none;stroke-width:0.46614191"
                 d="m 0,0 h 2.356 c 1.633,0 2.768,0.448 3.46,1.37 0.827,1.1 1.227,2.3 1.227,3.672 0,1.371 -0.4,2.57 -1.227,3.671 V 8.715 C 5.124,9.637 3.994,10.083 2.356,10.083 H 0 Z m 2.356,-3.925 h -6.28 v 17.932 h 6.28 c 2.915,0 5.135,-0.989 6.595,-2.941 1.34,-1.778 2.016,-3.805 2.016,-6.024 0,-2.224 -0.681,-4.251 -2.016,-6.029 -1.46,-1.946 -3.68,-2.938 -6.595,-2.938" />
            </g>
          </g>
        </g>
      </g>
    </g>
  </g>
</svg>
