# The Great Editor v0.0.1
mtllib floor_1.mtl
o floor_1
v -5.286291366410409 16.65455119970576 0
v -5.286291366410409 16.65455119970576 -0.1
v -4.650292844660772 16.65455119970576 0
v -4.650292844660772 16.65455119970576 -0.1
v -4.660099875480096 16.963296646884398 0
v -4.660099875480096 16.963296646884398 -0.1
v 4.789502389829441 16.894295383888945 0
v 4.789502389829441 16.894295383888945 -0.1
v 4.858503652824895 16.30798581829055 0
v 4.858503652824895 16.30798581829055 -0.1
v 6.272476327108544 16.239034847760838 0
v 6.272476327108544 16.239034847760838 -0.1
v 6.341427297638257 16.75634315036378 0
v 6.341427297638257 16.75634315036378 -0.1
v 15.860030825943248 16.75634315036378 0
v 15.860030825943248 16.75634315036378 -0.1
v 15.894481164975234 16.376987081286007 0
v 15.894481164975234 16.376987081286007 -0.1
v 16.687744227094246 16.411487712783735 0
v 16.687744227094246 16.411487712783735 -0.1
v 16.92914806264685 -4.729402893269991 0
v 16.92914806264685 -4.729402893269991 -0.1
v -5.108406915087582 -4.763903524767717 0
v -5.108406915087582 -4.763903524767717 -0.1
v -5.039455944557869 -3.83273852158928 0
v -5.039455944557869 -3.83273852158928 -0.1
v -5.591264878658534 -3.8672391530870063 0
v -5.591264878658534 -3.8672391530870063 -0.1
v -5.556764247160808 -1.1426951140814081 0
v -5.556764247160808 -1.1426951140814081 -0.1
v -5.073956576055595 -1.1426951140814081 0
v -5.073956576055595 -1.1426951140814081 -0.1
v -5.073956576055595 -0.14257914037325786 0
v -5.073956576055595 -0.14257914037325786 -0.1
v -5.349861043105928 -0.10807850887553128 0
v -5.349861043105928 -0.10807850887553128 -0.1
v -5.280859780110474 5.927268842268317 0
v -5.280859780110474 5.927268842268317 -0.1
v -4.798052109005264 5.927268842268317 0
v -4.798052109005264 5.927268842268317 -0.1
v -4.791614673390527 7.161647121393976 0
v -4.791614673390527 7.161647121393976 -0.1
v -5.286291366410409 7.185234287826095 0
v -5.286291366410409 7.185234287826095 -0.1
v -5.309878532842528 11.87274355713456 0
v -5.309878532842528 11.87274355713456 -0.1
vt -5.286291366410409 16.65455119970576 0
vt -4.650292844660772 16.65455119970576 0
vt -4.660099875480096 16.963296646884398 0
vt 4.789502389829441 16.894295383888945 0
vt 4.858503652824895 16.30798581829055 0
vt 6.272476327108544 16.239034847760838 0
vt 6.341427297638257 16.75634315036378 0
vt 15.860030825943248 16.75634315036378 0
vt 15.894481164975234 16.376987081286007 0
vt 16.687744227094246 16.411487712783735 0
vt 16.92914806264685 -4.729402893269991 0
vt -5.108406915087582 -4.763903524767717 0
vt -5.039455944557869 -3.83273852158928 0
vt -5.591264878658534 -3.8672391530870063 0
vt -5.556764247160808 -1.1426951140814081 0
vt -5.073956576055595 -1.1426951140814081 0
vt -5.073956576055595 -0.14257914037325786 0
vt -5.349861043105928 -0.10807850887553128 0
vt -5.280859780110474 5.927268842268317 0
vt -4.798052109005264 5.927268842268317 0
vt -4.791614673390527 7.161647121393976 0
vt -5.286291366410409 7.185234287826095 0
vt -5.309878532842528 11.87274355713456 0
vn 0 0 1
vn 0 0 -1
usemtl floor_1
s off
f 45/23/1 3/2/1 1/1/1
f 2/1/2 4/2/2 46/23/2
f 3/2/1 7/4/1 5/3/1
f 6/3/2 8/4/2 4/2/2
f 3/2/1 9/5/1 7/4/1
f 8/4/2 10/5/2 4/2/2
f 13/7/1 17/9/1 15/8/1
f 16/8/2 18/9/2 14/7/2
f 17/9/1 21/11/1 19/10/1
f 20/10/2 22/11/2 18/9/2
f 21/11/1 25/13/1 23/12/1
f 24/12/2 26/13/2 22/11/2
f 25/13/1 29/15/1 27/14/1
f 28/14/2 30/15/2 26/13/2
f 25/13/1 31/16/1 29/15/1
f 30/15/2 32/16/2 26/13/2
f 43/22/1 41/21/1 45/23/1
f 46/23/2 42/21/2 44/22/2
f 41/21/1 9/5/1 45/23/1
f 46/23/2 10/5/2 42/21/2
f 9/5/1 3/2/1 45/23/1
f 46/23/2 4/2/2 10/5/2
f 41/21/1 39/20/1 9/5/1
f 10/5/2 40/20/2 42/21/2
f 39/20/1 11/6/1 9/5/1
f 10/5/2 12/6/2 40/20/2
f 11/6/1 17/9/1 13/7/1
f 14/7/2 18/9/2 12/6/2
f 11/6/1 21/11/1 17/9/1
f 18/9/2 22/11/2 12/6/2
f 11/6/1 39/20/1 21/11/1
f 22/11/2 40/20/2 12/6/2
f 39/20/1 33/17/1 21/11/1
f 22/11/2 34/17/2 40/20/2
f 33/17/1 31/16/1 21/11/1
f 22/11/2 32/16/2 34/17/2
f 31/16/1 25/13/1 21/11/1
f 22/11/2 26/13/2 32/16/2
f 33/17/1 39/20/1 35/18/1
f 36/18/2 40/20/2 34/17/2
f 39/20/1 37/19/1 35/18/1
f 36/18/2 38/19/2 40/20/2
